<svg xmlns="http://www.w3.org/2000/svg" viewBox="0 0 96 96">
	<g>
		<path d="M92.456,64.241L66.18,48.168l26.275-16.073c0.452-0.277,0.776-0.722,0.9-1.238s0.038-1.06-0.238-1.512l-7.721-12.621
			c-0.575-0.942-1.808-1.239-2.75-0.663L57.564,31.405V2c0-1.104-0.896-2-2-2H40.771c-1.104,0-2,0.896-2,2v29.405L13.688,16.062
			c-0.944-0.576-2.174-0.28-2.75,0.663L3.217,29.346c-0.276,0.452-0.362,0.996-0.238,1.512s0.448,0.961,0.9,1.238l26.276,16.072
			L3.879,64.241c-0.452,0.276-0.776,0.722-0.9,1.237c-0.124,0.517-0.038,1.061,0.238,1.513l7.721,12.62
			c0.576,0.942,1.806,1.24,2.75,0.664l25.083-15.344v29.405c0,1.104,0.896,2,2,2h14.793c1.104,0,2-0.896,2-2V64.932l25.083,15.342
			c0.942,0.576,2.175,0.279,2.75-0.662l7.721-12.621c0.276-0.452,0.362-0.996,0.238-1.512C93.233,64.962,92.908,64.518,92.456,64.241
			z"/>
	</g>
</svg>
